<svg width="179" height="28" viewBox="0 0 179 28" fill="none" xmlns="http://www.w3.org/2000/svg">
<g clip-path="url(#clip0_3618_26463)">
<path d="M177.547 9.52307H147.468C146.666 9.52307 146.015 10.1635 146.015 10.9535V20.7839C146.015 21.5739 146.666 22.2144 147.468 22.2144H177.547C178.35 22.2144 179 21.5739 179 20.7839V10.9535C179 10.1635 178.35 9.52307 177.547 9.52307Z" fill="#6847FF"/>
<path d="M60.2231 11.3552H54.3192C54.1523 11.3552 53.9884 11.4374 53.8772 11.547L52.4058 13.7748C52.3224 13.857 52.2111 13.9117 52.1029 13.9117H50.9747V21.9861H47.1108V8.39392H50.8387V11.3583H51.8865C51.9978 11.3583 52.1338 11.3035 52.2173 11.2213L53.9235 8.61305C54.0348 8.47609 54.2265 8.39696 54.4212 8.39696H62.1828L60.2231 11.3613V11.3552Z" fill="white"/>
<path d="M78.1697 2.9552H82.0335V21.9861H78.1697V2.9552Z" fill="white"/>
<path d="M88.3641 22.0409C85.7398 22.0409 83.9749 20.3 83.9749 17.7191V12.7157C83.9749 10.1317 85.7429 8.39392 88.3641 8.39392H96.7842C99.4085 8.39392 101.173 10.1348 101.173 12.7157V17.7191C101.173 20.3031 99.4054 22.0409 96.7842 22.0409H88.3641ZM97.3097 17.637V12.7978C97.3097 11.9274 96.7285 11.3583 95.8476 11.3583H89.3038C88.4198 11.3583 87.8418 11.9304 87.8418 12.7978V17.637C87.8418 18.5074 88.4229 19.0765 89.3038 19.0765H95.8476C96.7316 19.0765 97.3097 18.5044 97.3097 17.637Z" fill="white"/>
<path d="M115.952 8.39392H106.286L104.302 11.3583H114.737C115.621 11.3583 116.202 11.9304 116.202 12.8009V12.9104H107.229C104.605 12.9104 102.976 14.6483 102.976 17.3144V17.6674C102.976 20.2483 104.744 21.9891 107.368 21.9891H112.499C112.694 21.9891 112.886 21.907 112.997 21.7731L114.743 19.1617C114.827 19.0796 114.963 19.0248 115.074 19.0248H116.338V21.9891H120.202V12.8009C120.202 10.1348 118.573 8.39696 115.952 8.39696V8.39392ZM116.199 16.4683H115.17C115.059 16.4683 114.95 16.5231 114.867 16.6052L113.374 18.8331C113.263 18.9426 113.099 19.0248 112.932 19.0248H108.221C107.396 19.0248 106.842 18.4831 106.842 17.6674V17.3144C106.842 16.4439 107.396 15.8717 108.277 15.8717H116.202V16.4713L116.199 16.4683Z" fill="white"/>
<path d="M135.5 2.9552V8.39085H126.387C123.766 8.39085 122.137 10.1317 122.137 12.7948V17.6613C122.137 20.2422 123.905 21.983 126.526 21.983H131.716C131.911 21.983 132.103 21.9009 132.214 21.7669L133.97 19.1556C134.053 19.0735 134.189 19.0187 134.3 19.0187H135.639V21.983H139.367V2.9552H135.503H135.5ZM135.5 16.4682H134.446C134.334 16.4682 134.226 16.523 134.143 16.6052L132.656 18.833C132.545 18.9426 132.381 19.0248 132.214 19.0248H127.382C126.554 19.0248 126.001 18.483 126.001 17.6674V12.8009C126.001 11.9304 126.554 11.3582 127.438 11.3582H135.5V16.4682Z" fill="white"/>
<path d="M64.0344 19.0491V16.6478H76.2348V8.37561H65.0204C64.6495 8.37865 64.2693 8.52778 64.0468 8.82605L62.6836 10.8682L61.3915 12.7947H60.1675V22.0134H74.272L76.2348 19.0491H64.0344ZM64.0344 13.0747L65.1966 11.3369H72.3679V13.6895H65.5552L64.0344 15.966V13.0717V13.0747Z" fill="white"/>
<path d="M37.7882 0V28H4.23166V19.7735H9.35354V22.957H32.6694V5.04H9.35354V9.08783L11.236 7.2313L13.5234 9.48348L6.76014 16.1396L0 9.48348L2.28429 7.2313L4.23166 9.1487V0H37.7882Z" fill="#6847FF"/>
<path d="M150.986 15.1261L151.811 14.2222C151.857 14.1643 151.941 14.1309 152.024 14.1309H156.268L155.431 15.3969H151.601L151.035 16.0117V18.0539C151.035 18.4252 151.282 18.6687 151.66 18.6687H155.984V19.9348H151.258C150.139 19.9348 149.385 19.1922 149.385 18.0904V15.2113H150.788C150.859 15.2113 150.942 15.1778 150.989 15.1291L150.986 15.1261Z" fill="white"/>
<path d="M157.032 11.8057H158.682V19.9287H157.032V11.8057Z" fill="white"/>
<path d="M165.449 17.5761V14.1278H167.099V19.9317H165.508V18.6656H165.072C165.038 18.6656 164.979 18.69 164.942 18.7235L163.999 19.8374C163.953 19.8952 163.882 19.9287 163.798 19.9287H161.736C160.617 19.9287 159.863 19.1861 159.863 18.0843V14.1278H161.514V18.0843C161.514 18.4313 161.749 18.6656 162.104 18.6656H164.015C164.086 18.6656 164.157 18.6322 164.203 18.5835L165.016 17.6309C165.05 17.5974 165.087 17.573 165.134 17.573H165.452L165.449 17.5761Z" fill="white"/>
<path d="M169.866 11.8057V15.3909H170.314C170.36 15.3909 170.419 15.3665 170.456 15.3331L171.424 14.2191C171.47 14.1613 171.554 14.1278 171.637 14.1278H173.758C174.877 14.1278 175.631 14.8704 175.631 15.9722V18.0509C175.631 19.1891 174.935 19.9317 173.816 19.9317H168.277V11.8087H169.869L169.866 11.8057ZM173.39 15.3909H171.408C171.337 15.3909 171.266 15.4244 171.22 15.4731L170.382 16.4257C170.348 16.4591 170.299 16.4835 170.252 16.4835H169.922V19.5239L170.521 18.6657H173.362C173.739 18.6657 173.974 18.4222 173.974 18.0509V15.9722C173.974 15.6252 173.739 15.3909 173.384 15.3909H173.39Z" fill="white"/>
</g>
<defs>
<clipPath id="clip0_3618_26463">
<rect width="179" height="28" fill="white"/>
</clipPath>
</defs>
</svg>
