<svg width="179" height="27" viewBox="0 0 179 27" fill="none" xmlns="http://www.w3.org/2000/svg">
<path d="M177.028 26.6205H136.211C135.12 26.6205 134.24 25.736 134.24 24.6408V11.0357C134.24 9.94057 135.12 9.05603 136.211 9.05603H177.028C178.119 9.05603 179 9.94057 179 11.0357V24.6408C179 25.736 178.119 26.6205 177.028 26.6205Z" fill="#6847FF"/>
<path d="M140.993 16.8063L142.126 15.5427C142.21 15.4584 142.294 15.4163 142.42 15.4163H148.167L147.034 17.1854H141.79L141.035 18.0278V20.8499C141.035 21.3554 141.371 21.6924 141.874 21.6924H147.747V23.4614H141.329C139.819 23.4614 138.77 22.4505 138.77 20.892V16.8905C139.525 16.8905 139.987 16.8905 140.658 16.8905C140.784 16.9327 140.91 16.8905 140.993 16.8063Z" fill="white"/>
<path d="M149.174 12.2151H151.397V23.4614H149.174V12.2151Z" fill="white"/>
<path d="M160.584 20.2181V15.4163H162.807V23.4614H160.668V21.6924H160.081C160.039 21.6924 159.955 21.7345 159.913 21.7766L158.654 23.3351C158.57 23.4193 158.487 23.4614 158.403 23.4614H155.592C154.082 23.4614 153.033 22.4505 153.033 20.892V15.4163H155.256V20.892C155.256 21.3554 155.592 21.6924 156.053 21.6924H158.654C158.738 21.6924 158.864 21.6502 158.906 21.566L159.997 20.2602C160.039 20.2181 160.081 20.176 160.165 20.176H160.584V20.2181Z" fill="white"/>
<path d="M166.583 12.2151V17.1854H167.17C167.254 17.1854 167.296 17.1433 167.38 17.1012L168.68 15.5427C168.764 15.4584 168.848 15.4163 168.974 15.4163H171.869C173.379 15.4163 174.427 16.4272 174.427 17.9857V20.8499C174.427 22.4084 173.505 23.4614 171.952 23.4614H164.443V12.2151H166.583ZM171.365 17.1854H168.68C168.596 17.1854 168.471 17.2275 168.429 17.3118L167.296 18.6175C167.254 18.6596 167.17 18.7018 167.128 18.7018H166.667V22.9139L167.464 21.7345H171.323C171.827 21.7345 172.162 21.3975 172.162 20.892V18.0278C172.162 17.4802 171.869 17.1854 171.365 17.1854Z" fill="white"/>
<path d="M17.7448 11.5833H9.77431C9.56456 11.5833 9.31286 11.7097 9.18702 11.836L7.17342 14.9109C7.04757 15.0372 6.92172 15.0793 6.75392 15.0793H5.24373V26.2414H0V7.49755H5.03398V11.5833H6.46028C6.62808 11.5833 6.79587 11.4991 6.92172 11.4148L9.22897 7.7924C9.39676 7.62391 9.64846 7.49755 9.90016 7.49755H20.4296L17.7448 11.5833Z" fill="white"/>
<path d="M42.0757 0H47.3194V26.2835H42.0757V0Z" fill="white"/>
<path d="M93.5062 7.49755H80.4179L77.7331 11.5833H91.8702C93.0867 11.5833 93.8418 12.3836 93.8418 13.563V13.7315H81.6763C78.1106 13.7315 75.9292 16.1324 75.9292 19.7969V20.3024C75.9292 23.8826 78.3204 26.2835 81.8861 26.2835H88.8498C89.1015 26.2835 89.3532 26.1572 89.521 25.9887L91.8702 22.3663C91.996 22.2399 92.1638 22.1978 92.3316 22.1978H94.0515V26.2835H99.2953V13.6051C99.2533 9.89845 97.03 7.49755 93.5062 7.49755ZM93.8418 18.6596H92.4575C92.2896 18.6596 92.1638 18.7439 92.038 18.8281L90.0244 21.903C89.8566 22.0714 89.6468 22.1557 89.4371 22.1557H83.0607C81.928 22.1557 81.173 21.3975 81.173 20.2602V19.7548C81.173 18.5333 81.9281 17.7751 83.1026 17.7751H93.8418V18.6596Z" fill="white"/>
<path d="M119.977 0V7.49755H107.643C104.078 7.49755 101.896 9.89845 101.896 13.563V20.3024C101.896 23.8826 104.287 26.2835 107.853 26.2835H114.901C115.152 26.2835 115.404 26.1572 115.572 25.9887L117.963 22.3663C118.089 22.2399 118.257 22.1978 118.424 22.1978H120.228V26.2835H125.262V0H119.977ZM119.977 18.6596H118.55C118.382 18.6596 118.257 18.7439 118.131 18.8281L116.117 21.903C115.949 22.0714 115.74 22.1557 115.53 22.1557H108.986C107.853 22.1557 107.098 21.3975 107.098 20.2602V13.5209C107.098 12.2993 107.853 11.5412 109.028 11.5412H119.935V18.6596H119.977Z" fill="white"/>
<path d="M22.9466 22.2399V18.9124H39.4328V7.49755H24.247C23.7436 7.49755 23.2402 7.70816 22.9466 8.12937L21.1008 10.9515L19.3389 13.6051H17.6609V26.3257H36.7481L39.3909 22.2399H22.9466ZM22.9466 13.9842L24.5406 11.5833H34.273V14.8266H25.044L22.9885 17.9857V13.9842H22.9466Z" fill="white"/>
<path d="M54.6187 20.7657H51.2627V26.2835H73.3283V7.49755H51.2627V13.6472L49.9623 12.3415L48.4521 13.8578L52.8988 18.3227L57.3454 13.8578L55.8352 12.3415L54.6187 13.6051V10.9094H69.9304V22.9139H54.6187V20.7657Z" fill="#6847FF"/>
</svg>
