<?xml version="1.0" encoding="utf-8"?>
<!-- Generator: Adobe Illustrator 27.1.1, SVG Export Plug-In . SVG Version: 6.00 Build 0)  -->
<svg version="1.1" id="Camada_1" xmlns="http://www.w3.org/2000/svg" xmlns:xlink="http://www.w3.org/1999/xlink" x="0px" y="0px"
	 viewBox="0 0 616.9 125.9" style="enable-background:new 0 0 616.9 125.9;" xml:space="preserve">
<style type="text/css">
	.st0{fill:#6847FF;}
	.st1{fill:#FFFFFF;}
</style>
<g>
	<g>
		<g>
			<g>
				<g>
					<polygon class="st0" points="167.3,0 167.3,125.9 18.7,125.9 18.7,88.9 41.4,88.9 41.4,103.2 144.6,103.2 144.6,22.7 
						41.4,22.7 41.4,40.9 49.7,32.5 59.9,42.6 29.9,72.6 0,42.6 10.1,32.5 18.7,41.1 18.7,0 					"/>
				</g>
			</g>
		</g>
	</g>
	<g>
		<path class="st1" d="M265.8,51h-26.1c-0.7,0-1.5,0.4-2,0.9l-6.5,10c-0.4,0.4-0.9,0.6-1.3,0.6h-5v36.3h-17.1V37.7h17.1V51h4.1
			c0.5,0,1.1-0.2,1.5-0.6l7.6-11.7c0.5-0.6,1.3-1,2.2-1h34.4L265.8,51z"/>
		<path class="st1" d="M345.3,13.3h17.1v85.5h-17.1V13.3z"/>
		<path class="st1" d="M390.4,99c-11.6,0-19.4-7.8-19.4-19.4V57.1c0-11.6,7.8-19.4,19.4-19.4h37.3c11.6,0,19.4,7.8,19.4,19.4v22.5
			c0,11.6-7.8,19.4-19.4,19.4H390.4z M430,79.3V57.5c0-3.9-2.6-6.5-6.5-6.5h-29c-3.9,0-6.5,2.6-6.5,6.5v21.8c0,3.9,2.6,6.5,6.5,6.5
			h29C427.4,85.7,430,83.2,430,79.3z"/>
		<path class="st1" d="M513.3,37.7h-42.8L461.7,51h46.2c3.9,0,6.5,2.6,6.5,6.5V58h-39.7c-11.6,0-18.8,7.8-18.8,19.8v1.6
			c0,11.6,7.8,19.4,19.4,19.4H498c0.9,0,1.7-0.4,2.2-1l7.7-11.7c0.4-0.4,1-0.6,1.5-0.6h5v13.3h17.7V57.5
			C532.1,45.5,524.9,37.7,513.3,37.7z M514.4,74h-4.6c-0.5,0-1,0.2-1.3,0.6l-6.6,10c-0.5,0.5-1.2,0.9-2,0.9h-20.9
			c-3.7,0-6.1-2.4-6.1-6.1v-1.6c0-3.9,2.4-6.5,6.3-6.5h35.1V74z"/>
		<path class="st1" d="M599.8,13.3v24.4h-40.3c-11.6,0-18.8,7.8-18.8,19.8v21.9c0,11.6,7.8,19.4,19.4,19.4h23c0.9,0,1.7-0.4,2.2-1
			l7.8-11.7c0.4-0.4,1-0.6,1.5-0.6h5.2v13.3h17.2V13.3H599.8z M599.8,74h-4.7c-0.5,0-1,0.2-1.3,0.6l-6.6,10c-0.5,0.5-1.2,0.9-2,0.9
			h-21.4c-3.7,0-6.1-2.4-6.1-6.1V57.5c0-3.9,2.4-6.5,6.4-6.5h35.7V74z"/>
		<path class="st1" d="M282.7,85.6V74.8h54V37.6h-49.6c-1.6,0-3.3,0.7-4.3,2l-6,9.2l-5.7,8.7h-5.4v41.4H328l8.7-13.3H282.7z
			 M282.7,58.7l5.1-7.8h31.7v10.6h-30.2l-6.7,10.2V58.7z"/>
	</g>
</g>
</svg>
