<?xml version="1.0" encoding="utf-8"?>
<!-- Generator: Adobe Illustrator 27.1.1, SVG Export Plug-In . SVG Version: 6.00 Build 0)  -->
<svg version="1.1" id="Camada_1" xmlns="http://www.w3.org/2000/svg" xmlns:xlink="http://www.w3.org/1999/xlink" x="0px" y="0px"
	 viewBox="0 0 512 104.5" style="enable-background:new 0 0 512 104.5;" xml:space="preserve">
<style type="text/css">
	.st0{fill:#FFFFFF;}
</style>
<g>
	<g>
		<g>
			<g>
				<g>
					<polygon class="st0" points="138.9,0 138.9,104.5 15.5,104.5 15.5,73.8 34.4,73.8 34.4,85.7 120,85.7 120,18.8 34.4,18.8 
						34.4,33.9 41.3,27 49.7,35.4 24.8,60.3 0,35.4 8.4,27 15.5,34.1 15.5,0 					"/>
				</g>
			</g>
		</g>
	</g>
	<g>
		<path class="st0" d="M220.6,42.3h-21.7c-0.6,0-1.2,0.3-1.7,0.7l-5.4,8.3c-0.3,0.3-0.7,0.5-1.1,0.5h-4.1V82h-14.2V31.3h14.2v11h3.4
			c0.4,0,0.9-0.2,1.2-0.5l6.3-9.7c0.4-0.5,1.1-0.8,1.8-0.8H228L220.6,42.3z"/>
		<path class="st0" d="M286.6,11h14.2v71h-14.2V11z"/>
		<path class="st0" d="M324,82.2c-9.6,0-16.1-6.5-16.1-16.1V47.4c0-9.6,6.5-16.1,16.1-16.1h31c9.6,0,16.1,6.5,16.1,16.1v18.7
			c0,9.6-6.5,16.1-16.1,16.1H324z M356.9,65.8V47.7c0-3.2-2.2-5.4-5.4-5.4h-24.1c-3.2,0-5.4,2.2-5.4,5.4v18.1c0,3.2,2.2,5.4,5.4,5.4
			h24.1C354.7,71.1,356.9,69.1,356.9,65.8z"/>
		<path class="st0" d="M426,31.3h-35.5l-7.3,11h38.3c3.2,0,5.4,2.2,5.4,5.4v0.4H394c-9.6,0-15.6,6.5-15.6,16.4v1.3
			c0,9.6,6.5,16.1,16.1,16.1h18.8c0.7,0,1.4-0.3,1.8-0.8l6.4-9.7c0.3-0.3,0.8-0.5,1.2-0.5h4.1v11h14.7V47.7
			C441.6,37.8,435.7,31.3,426,31.3z M426.9,61.4h-3.8c-0.4,0-0.8,0.2-1.1,0.5l-5.5,8.3c-0.4,0.4-1,0.7-1.7,0.7h-17.3
			c-3.1,0-5.1-2-5.1-5.1v-1.3c0-3.2,2-5.4,5.2-5.4h29.1L426.9,61.4L426.9,61.4z"/>
		<path class="st0" d="M497.8,11v20.3h-33.4c-9.6,0-15.6,6.5-15.6,16.4v18.2c0,9.6,6.5,16.1,16.1,16.1H484c0.7,0,1.4-0.3,1.8-0.8
			l6.5-9.7c0.3-0.3,0.8-0.5,1.2-0.5h4.3v11h14.3V11H497.8z M497.8,61.4h-3.9c-0.4,0-0.8,0.2-1.1,0.5l-5.5,8.3
			c-0.4,0.4-1,0.7-1.7,0.7h-17.8c-3.1,0-5.1-2-5.1-5.1V47.7c0-3.2,2-5.4,5.3-5.4h29.6L497.8,61.4L497.8,61.4z"/>
		<path class="st0" d="M234.6,71v-9h44.8V31.2h-41.2c-1.3,0-2.7,0.6-3.6,1.7l-5,7.6l-4.7,7.2h-4.5v34.4h51.7l7.2-11H234.6z
			 M234.6,48.7l4.2-6.5h26.3V51h-25.1l-5.6,8.5L234.6,48.7L234.6,48.7z"/>
	</g>
</g>
</svg>
